# xmcd CD database file
#
# Track frame offsets:
#	150
#	19009
#	32727
#	47216
#	64746
#	81175
#	96744
#	114972
#	131917
#	147554
#
# Disc length: 2216 seconds
#
# Revision: 0
# Processed by: cddbd v1.4PL0 Copyright (c) Steve Scherf et al.
# Submitted via: CDex 1.50
#
DISCID=9108a60a
DTITLE=san severino - le tango des gens
DYEAR=2001
DGENRE=Blues
TTITLE0=frida
TTITLE1=mal o mains
TTITLE2=les embouteillages
TTITLE3=les filmes de guerre
TTITLE4=swing du nul
TTITLE5=le tango de l'ennui
TTITLE6=andre
TTITLE7=rouge
TTITLE8=maigrir
TTITLE9=la mer
EXTD=YEAR: 2001
EXTT0=
EXTT1=
EXTT2=
EXTT3=
EXTT4=
EXTT5=
EXTT6=
EXTT7=
EXTT8=
EXTT9=
PLAYORDER=
